<svg width="187" height="51" viewBox="0 0 187 51" fill="none" xmlns="http://www.w3.org/2000/svg">
<path d="M7 1H22C24 1 25 2 25 4V8H4V4C4 2 5 1 7 1Z" fill="#E5261F"/>
<path d="M6 8H4V26H6V8Z" fill="#E5261F"/>
<path d="M12 8H10V26H12V8Z" fill="#E5261F"/>
<path d="M19 8H17V26H19V8Z" fill="#E5261F"/>
<path d="M25 8H23V26H25V8Z" fill="#E5261F"/>
<path d="M2 26H27L28 31H1L2 26Z" fill="#E5261F"/>
<path d="M4 31L0 51H3L7 31H4Z" fill="#E5261F"/>
<path d="M22 31L26 51H29L25 31H22Z" fill="#E5261F"/>
<path d="M23.5 37H5.5V38.5H23.5V37Z" fill="#E5261F"/>
<path d="M69.6058 21.1484H63.0732C62.9538 20.3033 62.7102 19.5526 62.3423 18.8963C61.9744 18.2301 61.5021 17.6634 60.9254 17.196C60.3487 16.7287 59.6825 16.3707 58.9268 16.1222C58.1811 15.8736 57.3707 15.7493 56.4957 15.7493C54.9148 15.7493 53.5376 16.142 52.3643 16.9276C51.1911 17.7031 50.2813 18.8366 49.6349 20.3281C48.9886 21.8097 48.6655 23.6094 48.6655 25.7273C48.6655 27.9048 48.9886 29.7344 49.6349 31.2159C50.2912 32.6974 51.206 33.8161 52.3793 34.5717C53.5526 35.3274 54.9098 35.7053 56.451 35.7053C57.3161 35.7053 58.1165 35.5909 58.8523 35.3622C59.598 35.1335 60.2592 34.8004 60.8359 34.3629C61.4126 33.9155 61.8899 33.3736 62.2678 32.7372C62.6555 32.1009 62.924 31.375 63.0732 30.5597L69.6058 30.5895C69.4368 31.9915 69.0142 33.3438 68.3381 34.6463C67.6719 35.9389 66.772 37.0973 65.6385 38.1214C64.5149 39.1357 63.1726 39.9411 61.6115 40.5376C60.0604 41.1243 58.3054 41.4176 56.3466 41.4176C53.6222 41.4176 51.1861 40.8011 49.0384 39.5682C46.9006 38.3352 45.2102 36.5504 43.9673 34.2138C42.7344 31.8771 42.1179 29.0483 42.1179 25.7273C42.1179 22.3963 42.7443 19.5625 43.9972 17.2259C45.25 14.8892 46.9503 13.1094 49.098 11.8864C51.2457 10.6534 53.6619 10.0369 56.3466 10.0369C58.1165 10.0369 59.7571 10.2855 61.2685 10.7827C62.7898 11.2798 64.1371 12.0057 65.3104 12.9602C66.4837 13.9048 67.4382 15.0632 68.174 16.4354C68.9197 17.8075 69.397 19.3786 69.6058 21.1484ZM80.4712 27.7557V41H74.1175V10.4545H80.2923V22.1328H80.5607C81.0778 20.7805 81.913 19.7216 83.0664 18.956C84.2198 18.1804 85.6665 17.7926 87.4066 17.7926C88.9975 17.7926 90.3846 18.1406 91.5678 18.8366C92.761 19.5227 93.6857 20.5121 94.342 21.8047C95.0082 23.0874 95.3363 24.6236 95.3264 26.4134V41H88.9727V27.5469C88.9826 26.1349 88.6246 25.0362 87.8988 24.2507C87.1829 23.4652 86.1786 23.0724 84.886 23.0724C84.021 23.0724 83.2553 23.2564 82.5891 23.6243C81.9329 23.9922 81.4158 24.5291 81.038 25.2351C80.6701 25.9311 80.4812 26.7713 80.4712 27.7557ZM106.859 41.4325C105.398 41.4325 104.095 41.179 102.952 40.6719C101.808 40.1548 100.903 39.3942 100.237 38.3899C99.5808 37.3757 99.2527 36.1129 99.2527 34.6016C99.2527 33.3288 99.4863 32.2599 99.9537 31.3949C100.421 30.5298 101.057 29.8338 101.863 29.3068C102.668 28.7798 103.583 28.3821 104.607 28.1136C105.641 27.8452 106.725 27.6562 107.858 27.5469C109.191 27.4077 110.265 27.2784 111.08 27.1591C111.895 27.0298 112.487 26.8409 112.855 26.5923C113.223 26.3437 113.407 25.9759 113.407 25.4886V25.3991C113.407 24.4545 113.108 23.7237 112.512 23.2067C111.925 22.6896 111.09 22.4311 110.006 22.4311C108.863 22.4311 107.953 22.6847 107.277 23.1918C106.601 23.6889 106.153 24.3153 105.934 25.071L100.058 24.5938C100.356 23.2017 100.943 21.9986 101.818 20.9844C102.693 19.9602 103.822 19.1747 105.204 18.6278C106.596 18.071 108.206 17.7926 110.036 17.7926C111.309 17.7926 112.527 17.9418 113.69 18.2401C114.863 18.5384 115.903 19.0007 116.807 19.6271C117.722 20.2536 118.443 21.0589 118.97 22.0433C119.497 23.0178 119.76 24.1861 119.76 25.5483V41H113.735V37.8232H113.556C113.188 38.5391 112.696 39.1705 112.079 39.7173C111.463 40.2543 110.722 40.6768 109.857 40.9851C108.992 41.2834 107.993 41.4325 106.859 41.4325ZM108.679 37.0476C109.613 37.0476 110.439 36.8636 111.155 36.4957C111.871 36.1179 112.432 35.6108 112.84 34.9744C113.248 34.3381 113.452 33.6172 113.452 32.8118V30.3807C113.253 30.5099 112.979 30.6293 112.631 30.7386C112.293 30.8381 111.91 30.9325 111.483 31.022C111.055 31.1016 110.628 31.1761 110.2 31.2457C109.773 31.3054 109.385 31.3601 109.037 31.4098C108.291 31.5192 107.64 31.6932 107.083 31.9318C106.526 32.1705 106.094 32.4936 105.785 32.9013C105.477 33.299 105.323 33.7962 105.323 34.3928C105.323 35.2578 105.636 35.919 106.263 36.3764C106.899 36.8239 107.704 37.0476 108.679 37.0476ZM124.69 41V18.0909H131.044V41H124.69ZM127.882 15.1378C126.937 15.1378 126.127 14.8246 125.45 14.1982C124.784 13.5618 124.451 12.8011 124.451 11.9162C124.451 11.0412 124.784 10.2905 125.45 9.66406C126.127 9.0277 126.937 8.70952 127.882 8.70952C128.826 8.70952 129.632 9.0277 130.298 9.66406C130.974 10.2905 131.312 11.0412 131.312 11.9162C131.312 12.8011 130.974 13.5618 130.298 14.1982C129.632 14.8246 128.826 15.1378 127.882 15.1378ZM136.133 41V18.0909H142.293V22.0881H142.532C142.949 20.6662 143.65 19.5923 144.635 18.8665C145.619 18.1307 146.752 17.7628 148.035 17.7628C148.353 17.7628 148.696 17.7827 149.064 17.8224C149.432 17.8622 149.755 17.9169 150.034 17.9865V23.6243C149.735 23.5348 149.323 23.4553 148.796 23.3857C148.269 23.3161 147.787 23.2812 147.349 23.2812C146.414 23.2812 145.579 23.4851 144.843 23.8928C144.118 24.2905 143.541 24.8473 143.113 25.5632C142.696 26.2791 142.487 27.1044 142.487 28.0391V41H136.133ZM159.672 10.4545V41H153.319V10.4545H159.672ZM168.685 49.5909C167.879 49.5909 167.124 49.5263 166.418 49.397C165.722 49.2777 165.145 49.1236 164.688 48.9347L166.119 44.1918C166.865 44.4205 167.536 44.5447 168.133 44.5646C168.739 44.5845 169.261 44.4453 169.699 44.147C170.146 43.8487 170.509 43.3416 170.788 42.6257L171.161 41.6562L162.942 18.0909H169.624L174.367 34.9148H174.606L179.393 18.0909H186.12L177.216 43.4759C176.788 44.7088 176.207 45.7827 175.471 46.6974C174.745 47.6222 173.825 48.3331 172.712 48.8303C171.598 49.3374 170.256 49.5909 168.685 49.5909Z" fill="#5C5A5A"/>
</svg>
