<svg width="29" height="50" viewBox="0 0 29 50" fill="none" xmlns="http://www.w3.org/2000/svg">
<path d="M7 0H22C24 0 25 1 25 3V7H4V3C4 1 5 0 7 0Z" fill="#E5261F"/>
<path d="M6 7H4V25H6V7Z" fill="#E5261F"/>
<path d="M12 7H10V25H12V7Z" fill="#E5261F"/>
<path d="M19 7H17V25H19V7Z" fill="#E5261F"/>
<path d="M25 7H23V25H25V7Z" fill="#E5261F"/>
<path d="M2 25H27L28 30H1L2 25Z" fill="#E5261F"/>
<path d="M4 30L0 50H3L7 30H4Z" fill="#E5261F"/>
<path d="M22 30L26 50H29L25 30H22Z" fill="#E5261F"/>
<path d="M23.5 36H5.5V37.5H23.5V36Z" fill="#E5261F"/>
</svg>
